<svg width="398.24mm" height="107.8mm" viewBox="0 0 398.24 107.8" xmlns="http://www.w3.org/2000/svg" version="1.1" preserveAspectRatio="xMidYMid meet"><g id="svgGroup" stroke-linecap="round" fill-rule="evenodd" font-size="9pt" stroke="#000" stroke-width="0.25mm" fill="none" style="stroke:#000;stroke-width:0.25mm;fill:none"><path d="M 0 55.4 L 0 74.85 L 3 74.85 L 3 88.35 L 0 88.35 L 0 101.85 L 0 107.8 L 10.71 107.8 L 10.71 104.8 L 24.21 104.8 L 24.21 107.8 L 37.71 107.8 L 37.71 104.8 L 51.21 104.8 L 51.21 107.8 L 64.71 107.8 L 64.71 104.8 L 78.21 104.8 L 78.21 107.8 L 91.71 107.8 L 91.71 104.8 L 105.21 104.8 L 105.21 107.8 L 118.71 107.8 L 118.71 104.8 L 132.21 104.8 L 132.21 107.8 L 145.71 107.8 L 145.71 104.8 L 159.21 104.8 L 159.21 107.8 L 169.92 107.8 L 169.92 88.35 L 166.92 88.35 L 166.92 74.85 L 169.92 74.85 L 169.92 61.35 L 169.92 55.4 L 0 55.4 Z" id="front_outsideCutPath" stroke="#FF0000" stroke-width="0.1" style="stroke:#FF0000;stroke-width:0.1" vector-effect="non-scaling-stroke"/><path d="M 92.597 85.558 L 91.748 85.558 L 91.748 81.93 A 2.401 2.401 0 0 0 91.72 81.553 Q 91.655 81.144 91.436 80.907 Q 91.124 80.569 90.458 80.569 Q 89.578 80.569 89.169 81.045 A 1.389 1.389 0 0 0 88.928 81.467 Q 88.782 81.854 88.763 82.431 A 5.442 5.442 0 0 0 88.76 82.616 L 88.76 85.558 L 87.91 85.558 L 87.91 79.95 L 88.601 79.95 L 88.739 80.717 L 88.78 80.717 A 1.72 1.72 0 0 1 89.454 80.104 A 2.068 2.068 0 0 1 89.512 80.075 A 2.3 2.3 0 0 1 90.33 79.857 A 2.781 2.781 0 0 1 90.561 79.847 Q 91.233 79.847 91.684 80.062 A 1.526 1.526 0 0 1 92.086 80.336 A 1.472 1.472 0 0 1 92.444 80.899 Q 92.597 81.312 92.597 81.899 L 92.597 85.558 Z M 76.279 79.95 L 76.279 80.61 L 74.851 80.61 L 74.851 85.558 L 74.002 85.558 L 74.002 80.61 L 72.999 80.61 L 72.999 80.226 L 74.002 79.919 L 74.002 79.607 Q 74.002 77.539 75.808 77.539 A 2.735 2.735 0 0 1 76.195 77.569 Q 76.383 77.596 76.593 77.648 A 5.499 5.499 0 0 1 76.852 77.719 L 76.632 78.399 Q 76.283 78.286 76.006 78.254 A 1.827 1.827 0 0 0 75.793 78.24 A 1.146 1.146 0 0 0 75.516 78.272 A 0.736 0.736 0 0 0 75.081 78.56 Q 74.872 78.85 74.853 79.458 A 4.011 4.011 0 0 0 74.851 79.586 L 74.851 79.95 L 76.279 79.95 Z M 96.921 84.857 L 96.921 85.507 Q 96.783 85.573 96.515 85.617 A 3.682 3.682 0 0 1 96.275 85.648 Q 96.145 85.66 96.031 85.66 Q 94.404 85.66 94.404 83.946 L 94.404 80.61 L 93.6 80.61 L 93.6 80.2 L 94.404 79.847 L 94.762 78.65 L 95.253 78.65 L 95.253 79.95 L 96.88 79.95 L 96.88 80.61 L 95.253 80.61 L 95.253 83.91 A 1.711 1.711 0 0 0 95.278 84.211 Q 95.307 84.376 95.372 84.506 A 0.824 0.824 0 0 0 95.494 84.688 A 0.789 0.789 0 0 0 95.979 84.946 A 1.135 1.135 0 0 0 96.154 84.959 A 2.79 2.79 0 0 0 96.563 84.93 A 2.57 2.57 0 0 0 96.589 84.926 Q 96.799 84.893 96.921 84.857 Z M 80.531 79.909 L 80.413 80.697 A 3.744 3.744 0 0 0 80.144 80.647 Q 80.01 80.628 79.89 80.622 A 1.992 1.992 0 0 0 79.799 80.62 A 1.472 1.472 0 0 0 78.712 81.09 A 2.014 2.014 0 0 0 78.635 81.173 Q 78.152 81.725 78.152 82.549 L 78.152 85.558 L 77.302 85.558 L 77.302 79.95 L 78.003 79.95 L 78.1 80.988 L 78.141 80.988 A 2.869 2.869 0 0 1 78.462 80.53 A 2.191 2.191 0 0 1 78.894 80.144 A 1.693 1.693 0 0 1 79.861 79.847 A 3.9 3.9 0 0 1 80.21 79.862 A 2.846 2.846 0 0 1 80.531 79.909 Z M 86.421 82.749 Q 86.421 84.12 85.73 84.89 A 2.265 2.265 0 0 1 84.397 85.612 A 3.299 3.299 0 0 1 83.821 85.66 A 2.728 2.728 0 0 1 83.029 85.549 A 2.365 2.365 0 0 1 82.486 85.307 A 2.3 2.3 0 0 1 81.647 84.415 A 2.792 2.792 0 0 1 81.585 84.294 Q 81.268 83.634 81.268 82.749 A 4.411 4.411 0 0 1 81.345 81.896 Q 81.443 81.399 81.665 81.012 A 2.347 2.347 0 0 1 81.954 80.612 Q 82.639 79.847 83.857 79.847 A 2.854 2.854 0 0 1 84.695 79.964 A 2.224 2.224 0 0 1 85.728 80.63 A 2.645 2.645 0 0 1 86.305 81.75 Q 86.407 82.147 86.419 82.614 A 4.986 4.986 0 0 1 86.421 82.749 Z M 82.148 82.749 A 4.302 4.302 0 0 0 82.189 83.363 Q 82.281 83.997 82.578 84.386 A 1.392 1.392 0 0 0 83.485 84.92 A 2.11 2.11 0 0 0 83.842 84.949 A 1.973 1.973 0 0 0 84.362 84.884 A 1.373 1.373 0 0 0 85.108 84.389 Q 85.43 83.972 85.512 83.268 A 4.475 4.475 0 0 0 85.541 82.749 A 4.238 4.238 0 0 0 85.501 82.145 Q 85.456 81.837 85.363 81.588 A 1.749 1.749 0 0 0 85.108 81.124 A 1.397 1.397 0 0 0 84.24 80.606 A 2.142 2.142 0 0 0 83.832 80.569 A 2.022 2.022 0 0 0 83.328 80.628 A 1.353 1.353 0 0 0 82.573 81.116 Q 82.148 81.664 82.148 82.749 Z" id="front_labelLayer" stroke="#777777" fill="#777777" style="stroke:#777777;fill:#777777" vector-effect="non-scaling-stroke"/><path d="M 175.92 55.4 L 175.92 74.85 L 172.92 74.85 L 172.92 88.35 L 175.92 88.35 L 175.92 101.85 L 175.92 107.8 L 192.37 107.8 L 192.37 104.8 L 205.87 104.8 L 205.87 107.8 L 219.37 107.8 L 222.32 107.8 L 222.32 88.35 L 225.32 88.35 L 225.32 74.85 L 222.32 74.85 L 222.32 61.35 L 222.32 55.4 L 175.92 55.4 Z" id="left_outsideCutPath" stroke="#FF0000" stroke-width="0.1" style="stroke:#FF0000;stroke-width:0.1" vector-effect="non-scaling-stroke"/><path d="M 202.848 79.95 L 202.848 80.61 L 201.42 80.61 L 201.42 85.558 L 200.571 85.558 L 200.571 80.61 L 199.568 80.61 L 199.568 80.226 L 200.571 79.919 L 200.571 79.607 Q 200.571 77.539 202.377 77.539 A 2.735 2.735 0 0 1 202.764 77.569 Q 202.952 77.596 203.162 77.648 A 5.499 5.499 0 0 1 203.421 77.719 L 203.201 78.399 Q 202.852 78.286 202.575 78.254 A 1.827 1.827 0 0 0 202.362 78.24 A 1.146 1.146 0 0 0 202.086 78.272 A 0.736 0.736 0 0 0 201.65 78.56 Q 201.442 78.85 201.422 79.458 A 4.011 4.011 0 0 0 201.42 79.586 L 201.42 79.95 L 202.848 79.95 Z M 198.872 82.37 L 198.872 82.907 L 195.008 82.907 A 3.409 3.409 0 0 0 195.068 83.478 Q 195.129 83.789 195.252 84.035 A 1.595 1.595 0 0 0 195.507 84.407 A 1.544 1.544 0 0 0 196.318 84.863 A 2.339 2.339 0 0 0 196.84 84.918 Q 197.746 84.918 198.631 84.54 L 198.631 85.297 A 5.1 5.1 0 0 1 198.167 85.473 A 3.9 3.9 0 0 1 197.779 85.576 A 3.566 3.566 0 0 1 197.425 85.631 Q 197.251 85.649 197.054 85.656 A 6.92 6.92 0 0 1 196.81 85.66 A 3.301 3.301 0 0 1 195.984 85.563 A 2.337 2.337 0 0 1 194.847 84.903 A 2.5 2.5 0 0 1 194.249 83.805 Q 194.128 83.352 194.128 82.8 A 4.46 4.46 0 0 1 194.211 81.915 Q 194.32 81.378 194.572 80.96 A 2.515 2.515 0 0 1 194.796 80.646 A 2.177 2.177 0 0 1 196.382 79.854 A 3.003 3.003 0 0 1 196.59 79.847 A 2.588 2.588 0 0 1 197.318 79.945 A 1.969 1.969 0 0 1 198.258 80.541 Q 198.872 81.234 198.872 82.37 Z M 206.45 84.857 L 206.45 85.507 Q 206.312 85.573 206.044 85.617 A 3.682 3.682 0 0 1 205.803 85.648 Q 205.674 85.66 205.56 85.66 Q 203.933 85.66 203.933 83.946 L 203.933 80.61 L 203.129 80.61 L 203.129 80.2 L 203.933 79.847 L 204.291 78.65 L 204.782 78.65 L 204.782 79.95 L 206.409 79.95 L 206.409 80.61 L 204.782 80.61 L 204.782 83.91 A 1.711 1.711 0 0 0 204.807 84.211 Q 204.836 84.376 204.901 84.506 A 0.824 0.824 0 0 0 205.023 84.688 A 0.789 0.789 0 0 0 205.508 84.946 A 1.135 1.135 0 0 0 205.683 84.959 A 2.79 2.79 0 0 0 206.091 84.93 A 2.57 2.57 0 0 0 206.118 84.926 Q 206.328 84.893 206.45 84.857 Z M 192.639 77.596 L 192.639 85.558 L 191.79 85.558 L 191.79 77.596 L 192.639 77.596 Z M 195.029 82.217 L 197.961 82.217 Q 197.961 81.413 197.603 80.986 A 1.164 1.164 0 0 0 196.902 80.587 A 1.746 1.746 0 0 0 196.579 80.559 Q 195.904 80.559 195.502 80.999 A 1.678 1.678 0 0 0 195.168 81.562 Q 195.062 81.852 195.029 82.217 Z" id="left_labelLayer" stroke="#777777" fill="#777777" style="stroke:#777777;fill:#777777" vector-effect="non-scaling-stroke"/><path d="M 0 0 L 0 19.45 L 3 19.45 L 3 32.95 L 0 32.95 L 0 46.45 L 0 52.4 L 10.71 52.4 L 10.71 49.4 L 24.21 49.4 L 24.21 52.4 L 37.71 52.4 L 37.71 49.4 L 51.21 49.4 L 51.21 52.4 L 64.71 52.4 L 64.71 49.4 L 78.21 49.4 L 78.21 52.4 L 91.71 52.4 L 91.71 49.4 L 105.21 49.4 L 105.21 52.4 L 118.71 52.4 L 118.71 49.4 L 132.21 49.4 L 132.21 52.4 L 145.71 52.4 L 145.71 49.4 L 159.21 49.4 L 159.21 52.4 L 169.92 52.4 L 169.92 32.95 L 166.92 32.95 L 166.92 19.45 L 169.92 19.45 L 169.92 5.95 L 169.92 0 L 0 0 Z" id="back_outsideCutPath" stroke="#FF0000" stroke-width="0.1" style="stroke:#FF0000;stroke-width:0.1" vector-effect="non-scaling-stroke"/><path d="M 92.134 27.259 L 92.175 27.259 A 5.029 5.029 0 0 1 92.3 27.091 Q 92.443 26.905 92.647 26.667 A 18.252 18.252 0 0 1 92.846 26.44 L 94.657 24.522 L 95.665 24.522 L 93.393 26.911 L 95.824 30.13 L 94.795 30.13 L 92.815 27.479 L 92.175 28.032 L 92.175 30.13 L 91.336 30.13 L 91.336 22.168 L 92.175 22.168 L 92.175 26.389 Q 92.175 26.666 92.136 27.238 A 34.311 34.311 0 0 1 92.134 27.259 Z M 74.946 29.408 L 74.884 29.408 L 74.705 30.13 L 74.096 30.13 L 74.096 22.168 L 74.946 22.168 L 74.946 24.102 Q 74.946 24.752 74.905 25.269 L 74.946 25.269 A 1.931 1.931 0 0 1 76.355 24.45 A 2.901 2.901 0 0 1 76.706 24.429 A 2.596 2.596 0 0 1 77.437 24.527 A 1.943 1.943 0 0 1 78.423 25.184 A 2.503 2.503 0 0 1 78.862 26.03 Q 79.034 26.587 79.034 27.321 Q 79.034 28.296 78.727 28.963 A 2.388 2.388 0 0 1 78.418 29.467 A 2.011 2.011 0 0 1 76.988 30.219 A 2.881 2.881 0 0 1 76.706 30.232 A 2.577 2.577 0 0 1 76.059 30.153 A 2.242 2.242 0 0 1 75.706 30.03 A 1.881 1.881 0 0 1 74.946 29.408 Z M 84.597 30.13 L 83.967 30.13 L 83.798 29.332 L 83.757 29.332 A 3.521 3.521 0 0 1 83.473 29.651 Q 83.196 29.922 82.921 30.046 A 1.959 1.959 0 0 1 82.516 30.173 Q 82.231 30.232 81.879 30.232 A 2.607 2.607 0 0 1 81.349 30.182 Q 81.025 30.114 80.776 29.957 A 1.463 1.463 0 0 1 80.572 29.802 A 1.396 1.396 0 0 1 80.151 29.066 A 2.137 2.137 0 0 1 80.099 28.579 Q 80.099 26.881 82.816 26.799 L 83.768 26.768 L 83.768 26.42 Q 83.768 26.017 83.662 25.742 A 0.948 0.948 0 0 0 83.484 25.445 Q 83.257 25.194 82.814 25.143 A 2.099 2.099 0 0 0 82.575 25.13 Q 82.012 25.13 81.329 25.408 A 5.689 5.689 0 0 0 80.989 25.56 L 80.728 24.91 A 3.917 3.917 0 0 1 81.484 24.6 A 4.458 4.458 0 0 1 81.636 24.557 A 3.934 3.934 0 0 1 82.627 24.429 Q 83.63 24.429 84.113 24.875 A 1.345 1.345 0 0 1 84.46 25.41 Q 84.541 25.63 84.574 25.903 A 3.342 3.342 0 0 1 84.597 26.302 L 84.597 30.13 Z M 90.087 24.711 L 89.826 25.432 A 3.779 3.779 0 0 0 89.417 25.296 A 4.513 4.513 0 0 0 89.212 25.246 A 3.509 3.509 0 0 0 88.945 25.196 Q 88.815 25.178 88.699 25.173 A 1.883 1.883 0 0 0 88.624 25.171 A 1.884 1.884 0 0 0 87.859 25.315 Q 87.057 25.669 86.936 26.891 A 4.694 4.694 0 0 0 86.915 27.351 A 4.114 4.114 0 0 0 86.955 27.95 Q 87.045 28.558 87.332 28.938 A 1.349 1.349 0 0 0 88.206 29.46 A 2.055 2.055 0 0 0 88.568 29.49 A 3.556 3.556 0 0 0 89.548 29.348 A 4.39 4.39 0 0 0 90.006 29.188 L 90.006 29.941 Q 89.522 30.191 88.824 30.226 A 4.658 4.658 0 0 1 88.588 30.232 Q 87.37 30.232 86.702 29.483 Q 86.035 28.733 86.035 27.362 Q 86.035 25.954 86.713 25.187 A 2.199 2.199 0 0 1 87.917 24.494 A 3.334 3.334 0 0 1 88.644 24.419 A 3.833 3.833 0 0 1 89.453 24.506 A 4.24 4.24 0 0 1 89.689 24.564 Q 89.929 24.63 90.087 24.711 Z M 76.583 25.141 Q 75.713 25.141 75.329 25.64 A 1.454 1.454 0 0 0 75.119 26.041 Q 74.977 26.439 74.951 27.044 A 6.545 6.545 0 0 0 74.946 27.321 Q 74.946 28.503 75.34 29.012 Q 75.693 29.468 76.429 29.516 A 2.731 2.731 0 0 0 76.604 29.521 A 1.693 1.693 0 0 0 77.085 29.457 A 1.222 1.222 0 0 0 77.77 28.95 Q 78.154 28.38 78.154 27.31 A 5.019 5.019 0 0 0 78.124 26.739 Q 78.052 26.113 77.809 25.735 A 1.409 1.409 0 0 0 77.77 25.678 A 1.239 1.239 0 0 0 76.982 25.179 A 1.965 1.965 0 0 0 76.583 25.141 Z M 83.747 27.878 L 83.747 27.372 L 82.898 27.408 A 6.237 6.237 0 0 0 82.399 27.444 Q 81.908 27.501 81.6 27.637 A 1.305 1.305 0 0 0 81.437 27.722 A 0.906 0.906 0 0 0 81.005 28.38 A 1.342 1.342 0 0 0 80.989 28.59 Q 80.989 28.995 81.205 29.229 A 0.757 0.757 0 0 0 81.268 29.291 Q 81.509 29.498 81.916 29.527 A 1.911 1.911 0 0 0 82.048 29.531 Q 82.841 29.531 83.294 29.096 A 1.423 1.423 0 0 0 83.691 28.386 Q 83.746 28.157 83.747 27.887 A 2.71 2.71 0 0 0 83.747 27.878 Z" id="back_labelLayer" stroke="#777777" fill="#777777" style="stroke:#777777;fill:#777777" vector-effect="non-scaling-stroke"/><path d="M 175.92 0 L 175.92 19.45 L 172.92 19.45 L 172.92 32.95 L 175.92 32.95 L 175.92 46.45 L 175.92 52.4 L 192.37 52.4 L 192.37 49.4 L 205.87 49.4 L 205.87 52.4 L 219.37 52.4 L 222.32 52.4 L 222.32 32.95 L 225.32 32.95 L 225.32 19.45 L 222.32 19.45 L 222.32 5.95 L 222.32 0 L 175.92 0 Z" id="right_outsideCutPath" stroke="#FF0000" stroke-width="0.1" style="stroke:#FF0000;stroke-width:0.1" vector-effect="non-scaling-stroke"/><path d="M 205.637 28.922 L 204.787 28.922 L 204.787 25.294 A 2.401 2.401 0 0 0 204.76 24.918 Q 204.695 24.508 204.475 24.271 Q 204.163 23.933 203.498 23.933 Q 202.92 23.933 202.546 24.138 A 1.189 1.189 0 0 0 202.206 24.414 Q 201.834 24.854 201.802 25.807 A 5.482 5.482 0 0 0 201.799 25.99 L 201.799 28.922 L 200.949 28.922 L 200.949 20.96 L 201.799 20.96 L 201.799 23.37 A 7.641 7.641 0 0 1 201.794 23.664 Q 201.784 23.908 201.758 24.092 L 201.809 24.092 A 1.697 1.697 0 0 1 202.404 23.519 A 2.073 2.073 0 0 1 202.523 23.455 Q 202.986 23.222 203.58 23.222 Q 204.608 23.222 205.122 23.71 A 1.479 1.479 0 0 1 205.487 24.283 Q 205.637 24.69 205.637 25.264 L 205.637 28.922 Z M 197.859 23.314 L 199.798 23.314 L 199.798 23.851 L 198.759 23.974 Q 198.88 24.125 198.979 24.353 A 2.619 2.619 0 0 1 199.015 24.442 A 1.634 1.634 0 0 1 199.112 24.833 A 2.099 2.099 0 0 1 199.128 25.095 Q 199.128 25.919 198.565 26.41 A 1.884 1.884 0 0 1 197.824 26.8 Q 197.543 26.879 197.21 26.896 A 3.69 3.69 0 0 1 197.019 26.901 Q 196.769 26.901 196.549 26.86 A 1.512 1.512 0 0 0 196.305 27.018 Q 196.179 27.119 196.106 27.236 A 0.639 0.639 0 0 0 196.006 27.582 A 0.44 0.44 0 0 0 196.029 27.726 Q 196.069 27.844 196.184 27.915 A 0.471 0.471 0 0 0 196.196 27.922 A 0.596 0.596 0 0 0 196.328 27.976 Q 196.518 28.032 196.845 28.032 L 197.838 28.032 Q 198.446 28.032 198.865 28.203 A 1.535 1.535 0 0 1 199.238 28.416 Q 199.726 28.8 199.726 29.531 A 1.839 1.839 0 0 1 199.621 30.168 Q 199.452 30.631 199.008 30.932 A 2.019 2.019 0 0 1 198.979 30.951 A 2.547 2.547 0 0 1 198.323 31.249 Q 197.999 31.348 197.604 31.395 A 6.733 6.733 0 0 1 196.799 31.44 A 4.759 4.759 0 0 1 196.161 31.4 Q 195.837 31.356 195.572 31.264 A 1.974 1.974 0 0 1 195.103 31.031 A 1.354 1.354 0 0 1 194.667 30.557 Q 194.527 30.298 194.509 29.969 A 1.794 1.794 0 0 1 194.507 29.874 Q 194.507 29.362 194.834 28.989 A 1.483 1.483 0 0 1 195.344 28.618 A 2.102 2.102 0 0 1 195.755 28.482 A 0.882 0.882 0 0 1 195.413 28.205 A 1.047 1.047 0 0 1 195.395 28.18 Q 195.249 27.976 195.249 27.704 A 0.971 0.971 0 0 1 195.298 27.392 A 0.861 0.861 0 0 1 195.413 27.167 Q 195.536 26.993 195.768 26.828 A 2.669 2.669 0 0 1 195.929 26.722 A 1.489 1.489 0 0 1 195.283 26.204 A 1.846 1.846 0 0 1 195.221 26.113 A 1.756 1.756 0 0 1 194.951 25.267 A 2.143 2.143 0 0 1 194.947 25.13 A 2.454 2.454 0 0 1 195.011 24.55 A 1.615 1.615 0 0 1 195.5 23.71 Q 196.052 23.212 197.065 23.212 A 3.256 3.256 0 0 1 197.496 23.239 A 2.48 2.48 0 0 1 197.859 23.314 Z M 209.961 28.221 L 209.961 28.871 Q 209.823 28.938 209.554 28.981 A 3.682 3.682 0 0 1 209.314 29.012 Q 209.185 29.025 209.07 29.025 Q 207.443 29.025 207.443 27.31 L 207.443 23.974 L 206.64 23.974 L 206.64 23.565 L 207.443 23.212 L 207.801 22.014 L 208.293 22.014 L 208.293 23.314 L 209.92 23.314 L 209.92 23.974 L 208.293 23.974 L 208.293 27.275 A 1.711 1.711 0 0 0 208.317 27.575 Q 208.347 27.74 208.411 27.87 A 0.824 0.824 0 0 0 208.533 28.052 A 0.789 0.789 0 0 0 209.018 28.311 A 1.135 1.135 0 0 0 209.193 28.324 A 2.79 2.79 0 0 0 209.602 28.294 A 2.57 2.57 0 0 0 209.628 28.29 Q 209.838 28.257 209.961 28.221 Z M 191.508 23.273 L 191.39 24.061 A 3.744 3.744 0 0 0 191.121 24.011 Q 190.987 23.992 190.868 23.986 A 1.992 1.992 0 0 0 190.776 23.984 A 1.472 1.472 0 0 0 189.689 24.454 A 2.014 2.014 0 0 0 189.612 24.537 Q 189.129 25.09 189.129 25.913 L 189.129 28.922 L 188.279 28.922 L 188.279 23.314 L 188.98 23.314 L 189.078 24.353 L 189.118 24.353 A 2.869 2.869 0 0 1 189.439 23.894 A 2.191 2.191 0 0 1 189.871 23.508 A 1.693 1.693 0 0 1 190.838 23.212 A 3.9 3.9 0 0 1 191.187 23.226 A 2.846 2.846 0 0 1 191.508 23.273 Z M 193.407 23.314 L 193.407 28.922 L 192.557 28.922 L 192.557 23.314 L 193.407 23.314 Z M 197.567 28.794 L 196.549 28.794 Q 196.125 28.794 195.839 28.943 A 0.995 0.995 0 0 0 195.648 29.071 A 0.895 0.895 0 0 0 195.354 29.578 A 1.359 1.359 0 0 0 195.326 29.864 A 0.853 0.853 0 0 0 195.382 30.18 Q 195.463 30.384 195.659 30.522 A 0.997 0.997 0 0 0 195.709 30.555 A 1.36 1.36 0 0 0 196.044 30.698 Q 196.362 30.79 196.81 30.79 Q 197.879 30.79 198.393 30.47 A 1.239 1.239 0 0 0 198.681 30.23 A 0.929 0.929 0 0 0 198.908 29.603 Q 198.908 29.147 198.626 28.971 A 0.806 0.806 0 0 0 198.435 28.888 Q 198.232 28.825 197.91 28.804 A 5.405 5.405 0 0 0 197.567 28.794 Z M 195.786 25.11 Q 195.786 25.698 196.119 26 A 1.098 1.098 0 0 0 196.561 26.24 Q 196.729 26.289 196.93 26.299 A 2.187 2.187 0 0 0 197.045 26.302 A 1.851 1.851 0 0 0 197.529 26.245 Q 198.084 26.094 198.233 25.55 A 1.72 1.72 0 0 0 198.288 25.095 Q 198.288 24.092 197.496 23.885 A 1.847 1.847 0 0 0 197.03 23.831 Q 196.571 23.831 196.274 24.02 A 0.978 0.978 0 0 0 196.109 24.153 A 1.019 1.019 0 0 0 195.862 24.569 Q 195.786 24.803 195.786 25.11 Z M 192.498 21.638 A 0.941 0.941 0 0 0 192.486 21.794 A 1.003 1.003 0 0 0 192.49 21.89 Q 192.498 21.976 192.522 22.046 A 0.439 0.439 0 0 0 192.629 22.221 A 0.477 0.477 0 0 0 192.801 22.331 A 0.54 0.54 0 0 0 192.987 22.362 A 0.496 0.496 0 0 0 193.34 22.221 A 0.415 0.415 0 0 0 193.421 22.114 Q 193.458 22.045 193.475 21.955 A 0.879 0.879 0 0 0 193.489 21.794 Q 193.489 21.654 193.453 21.55 A 0.429 0.429 0 0 0 193.34 21.369 Q 193.192 21.231 192.987 21.231 A 0.648 0.648 0 0 0 192.944 21.233 A 0.491 0.491 0 0 0 192.629 21.367 A 0.397 0.397 0 0 0 192.541 21.491 Q 192.511 21.556 192.498 21.638 Z" id="right_labelLayer" stroke="#777777" fill="#777777" style="stroke:#777777;fill:#777777" vector-effect="non-scaling-stroke"/><path d="M 231.32 58.4 L 231.32 74.85 L 228.32 74.85 L 228.32 88.35 L 231.32 88.35 L 231.32 101.85 L 231.32 104.8 L 239.03 104.8 L 239.03 107.8 L 252.53 107.8 L 252.53 104.8 L 266.03 104.8 L 266.03 107.8 L 279.53 107.8 L 279.53 104.8 L 293.03 104.8 L 293.03 107.8 L 306.53 107.8 L 306.53 104.8 L 320.03 104.8 L 320.03 107.8 L 333.53 107.8 L 333.53 104.8 L 347.03 104.8 L 347.03 107.8 L 360.53 107.8 L 360.53 104.8 L 374.03 104.8 L 374.03 107.8 L 387.53 107.8 L 387.53 104.8 L 395.24 104.8 L 395.24 88.35 L 398.24 88.35 L 398.24 74.85 L 395.24 74.85 L 395.24 61.35 L 395.24 58.4 L 387.53 58.4 L 387.53 55.4 L 374.03 55.4 L 374.03 58.4 L 360.53 58.4 L 360.53 55.4 L 347.03 55.4 L 347.03 58.4 L 333.53 58.4 L 333.53 55.4 L 320.03 55.4 L 320.03 58.4 L 306.53 58.4 L 306.53 55.4 L 293.03 55.4 L 293.03 58.4 L 279.53 58.4 L 279.53 55.4 L 266.03 55.4 L 266.03 58.4 L 252.53 58.4 L 252.53 55.4 L 239.03 55.4 L 239.03 58.4 L 231.32 58.4 Z" id="bottom_outsideCutPath" stroke="#FF0000" stroke-width="0.1" style="stroke:#FF0000;stroke-width:0.1" vector-effect="non-scaling-stroke"/><path d="M 330.52 85.53 L 329.67 85.53 L 329.67 81.881 A 2.506 2.506 0 0 0 329.645 81.513 Q 329.585 81.111 329.384 80.876 A 0.894 0.894 0 0 0 328.968 80.607 Q 328.762 80.541 328.493 80.541 A 2.186 2.186 0 0 0 328.049 80.583 Q 327.585 80.679 327.322 80.996 Q 326.943 81.451 326.943 82.398 L 326.943 85.53 L 326.093 85.53 L 326.093 81.881 A 2.506 2.506 0 0 0 326.068 81.513 Q 326.008 81.111 325.807 80.876 A 0.891 0.891 0 0 0 325.397 80.609 Q 325.25 80.561 325.069 80.547 A 1.989 1.989 0 0 0 324.911 80.541 A 2.11 2.11 0 0 0 324.475 80.583 Q 324.206 80.64 324.005 80.774 A 1.113 1.113 0 0 0 323.742 81.019 A 1.425 1.425 0 0 0 323.531 81.42 Q 323.394 81.808 323.374 82.389 A 5.914 5.914 0 0 0 323.371 82.587 L 323.371 85.53 L 322.522 85.53 L 322.522 79.921 L 323.212 79.921 L 323.351 80.689 L 323.392 80.689 A 1.669 1.669 0 0 1 324.07 80.049 A 2.017 2.017 0 0 1 324.866 79.826 A 2.436 2.436 0 0 1 325.05 79.819 Q 326.365 79.819 326.769 80.771 L 326.81 80.771 A 1.774 1.774 0 0 1 327.478 80.108 A 2.131 2.131 0 0 1 327.536 80.075 Q 328.012 79.819 328.621 79.819 Q 329.263 79.819 329.687 80.041 A 1.4 1.4 0 0 1 330.046 80.308 Q 330.52 80.796 330.52 81.871 L 330.52 85.53 Z M 296.89 84.808 L 296.828 84.808 L 296.649 85.53 L 296.04 85.53 L 296.04 77.568 L 296.89 77.568 L 296.89 79.502 Q 296.89 80.152 296.849 80.669 L 296.89 80.669 A 1.931 1.931 0 0 1 298.299 79.85 A 2.901 2.901 0 0 1 298.65 79.829 A 2.596 2.596 0 0 1 299.381 79.927 A 1.943 1.943 0 0 1 300.367 80.584 A 2.503 2.503 0 0 1 300.806 81.429 Q 300.978 81.987 300.978 82.721 Q 300.978 83.695 300.671 84.363 A 2.388 2.388 0 0 1 300.362 84.867 A 2.011 2.011 0 0 1 298.932 85.619 A 2.881 2.881 0 0 1 298.65 85.632 A 2.577 2.577 0 0 1 298.002 85.553 A 2.242 2.242 0 0 1 297.65 85.43 A 1.881 1.881 0 0 1 296.89 84.808 Z M 311.371 84.829 L 311.371 85.479 Q 311.233 85.545 310.964 85.589 A 3.682 3.682 0 0 1 310.724 85.62 Q 310.595 85.632 310.481 85.632 Q 308.854 85.632 308.854 83.918 L 308.854 80.582 L 308.05 80.582 L 308.05 80.172 L 308.854 79.819 L 309.212 78.622 L 309.703 78.622 L 309.703 79.921 L 311.33 79.921 L 311.33 80.582 L 309.703 80.582 L 309.703 83.882 A 1.711 1.711 0 0 0 309.728 84.183 Q 309.757 84.347 309.822 84.478 A 0.824 0.824 0 0 0 309.944 84.66 A 0.789 0.789 0 0 0 310.429 84.918 A 1.135 1.135 0 0 0 310.604 84.931 A 2.79 2.79 0 0 0 311.012 84.902 A 2.57 2.57 0 0 0 311.039 84.898 Q 311.248 84.865 311.371 84.829 Z M 315.071 84.829 L 315.071 85.479 Q 314.933 85.545 314.664 85.589 A 3.682 3.682 0 0 1 314.424 85.62 Q 314.295 85.632 314.181 85.632 Q 312.553 85.632 312.553 83.918 L 312.553 80.582 L 311.75 80.582 L 311.75 80.172 L 312.553 79.819 L 312.912 78.622 L 313.403 78.622 L 313.403 79.921 L 315.03 79.921 L 315.03 80.582 L 313.403 80.582 L 313.403 83.882 A 1.711 1.711 0 0 0 313.427 84.183 Q 313.457 84.347 313.522 84.478 A 0.824 0.824 0 0 0 313.643 84.66 A 0.789 0.789 0 0 0 314.128 84.918 A 1.135 1.135 0 0 0 314.303 84.931 A 2.79 2.79 0 0 0 314.712 84.902 A 2.57 2.57 0 0 0 314.738 84.898 Q 314.948 84.865 315.071 84.829 Z M 307.303 82.721 Q 307.303 84.092 306.612 84.862 A 2.265 2.265 0 0 1 305.28 85.584 A 3.299 3.299 0 0 1 304.704 85.632 A 2.728 2.728 0 0 1 303.911 85.521 A 2.365 2.365 0 0 1 303.368 85.279 A 2.3 2.3 0 0 1 302.529 84.387 A 2.792 2.792 0 0 1 302.467 84.266 Q 302.15 83.606 302.15 82.721 A 4.411 4.411 0 0 1 302.227 81.868 Q 302.325 81.371 302.548 80.984 A 2.347 2.347 0 0 1 302.836 80.584 Q 303.521 79.819 304.739 79.819 A 2.854 2.854 0 0 1 305.577 79.936 A 2.224 2.224 0 0 1 306.61 80.602 A 2.645 2.645 0 0 1 307.188 81.722 Q 307.289 82.119 307.301 82.586 A 4.986 4.986 0 0 1 307.303 82.721 Z M 321.033 82.721 Q 321.033 84.092 320.342 84.862 A 2.265 2.265 0 0 1 319.009 85.584 A 3.299 3.299 0 0 1 318.433 85.632 A 2.728 2.728 0 0 1 317.64 85.521 A 2.365 2.365 0 0 1 317.097 85.279 A 2.3 2.3 0 0 1 316.259 84.387 A 2.792 2.792 0 0 1 316.197 84.266 Q 315.88 83.606 315.88 82.721 A 4.411 4.411 0 0 1 315.957 81.868 Q 316.055 81.371 316.277 80.984 A 2.347 2.347 0 0 1 316.565 80.584 Q 317.251 79.819 318.469 79.819 A 2.854 2.854 0 0 1 319.307 79.936 A 2.224 2.224 0 0 1 320.339 80.602 A 2.645 2.645 0 0 1 320.917 81.722 Q 321.018 82.119 321.031 82.586 A 4.986 4.986 0 0 1 321.033 82.721 Z M 303.03 82.721 A 4.302 4.302 0 0 0 303.071 83.335 Q 303.163 83.969 303.46 84.358 A 1.392 1.392 0 0 0 304.367 84.892 A 2.11 2.11 0 0 0 304.724 84.921 A 1.973 1.973 0 0 0 305.245 84.856 A 1.373 1.373 0 0 0 305.991 84.361 Q 306.312 83.944 306.395 83.24 A 4.475 4.475 0 0 0 306.423 82.721 A 4.238 4.238 0 0 0 306.383 82.117 Q 306.338 81.809 306.245 81.56 A 1.749 1.749 0 0 0 305.991 81.096 A 1.397 1.397 0 0 0 305.122 80.578 A 2.142 2.142 0 0 0 304.714 80.541 A 2.022 2.022 0 0 0 304.21 80.6 A 1.353 1.353 0 0 0 303.455 81.088 Q 303.03 81.636 303.03 82.721 Z M 316.76 82.721 A 4.302 4.302 0 0 0 316.801 83.335 Q 316.892 83.969 317.19 84.358 A 1.392 1.392 0 0 0 318.096 84.892 A 2.11 2.11 0 0 0 318.453 84.921 A 1.973 1.973 0 0 0 318.974 84.856 A 1.373 1.373 0 0 0 319.72 84.361 Q 320.042 83.944 320.124 83.24 A 4.475 4.475 0 0 0 320.152 82.721 A 4.238 4.238 0 0 0 320.112 82.117 Q 320.068 81.809 319.974 81.56 A 1.749 1.749 0 0 0 319.72 81.096 A 1.397 1.397 0 0 0 318.851 80.578 A 2.142 2.142 0 0 0 318.443 80.541 A 2.022 2.022 0 0 0 317.94 80.6 A 1.353 1.353 0 0 0 317.184 81.088 Q 316.76 81.636 316.76 82.721 Z M 298.527 80.541 Q 297.657 80.541 297.273 81.04 A 1.454 1.454 0 0 0 297.063 81.441 Q 296.921 81.839 296.895 82.444 A 6.545 6.545 0 0 0 296.89 82.721 Q 296.89 83.903 297.284 84.412 Q 297.637 84.868 298.373 84.915 A 2.731 2.731 0 0 0 298.548 84.921 A 1.693 1.693 0 0 0 299.029 84.857 A 1.222 1.222 0 0 0 299.714 84.35 Q 300.098 83.78 300.098 82.71 A 5.019 5.019 0 0 0 300.068 82.138 Q 299.996 81.513 299.753 81.135 A 1.409 1.409 0 0 0 299.714 81.078 A 1.239 1.239 0 0 0 298.926 80.579 A 1.965 1.965 0 0 0 298.527 80.541 Z" id="bottom_labelLayer" stroke="#777777" fill="#777777" style="stroke:#777777;fill:#777777" vector-effect="non-scaling-stroke"/></g></svg>