<svg width="394.6mm" height="107.8mm" viewBox="0 0 394.6 107.8" xmlns="http://www.w3.org/2000/svg" version="1.1" preserveAspectRatio="xMidYMid meet"><g id="svgGroup" stroke-linecap="round" fill-rule="evenodd" font-size="9pt" stroke="#000" stroke-width="0.25mm" fill="none" style="stroke:#000;stroke-width:0.25mm;fill:none"><path d="M 0 55.4 L 0 68.85 L 6 68.85 L 6 94.35 L 0 94.35 L 0 107.8 L 20.3 107.8 L 20.3 101.8 L 45.8 101.8 L 45.8 107.8 L 71.3 107.8 L 71.3 101.8 L 96.8 101.8 L 96.8 107.8 L 122.3 107.8 L 122.3 101.8 L 147.8 101.8 L 147.8 107.8 L 168.1 107.8 L 168.1 94.35 L 162.1 94.35 L 162.1 68.85 L 168.1 68.85 L 168.1 55.4 L 0 55.4 Z" id="front_outsideCutPath" stroke="#FF0000" stroke-width="0.1" style="stroke:#FF0000;stroke-width:0.1" vector-effect="non-scaling-stroke"/><path d="M 91.687 85.558 L 90.838 85.558 L 90.838 81.93 A 2.401 2.401 0 0 0 90.81 81.553 Q 90.745 81.144 90.526 80.907 Q 90.214 80.569 89.548 80.569 Q 88.668 80.569 88.259 81.045 A 1.389 1.389 0 0 0 88.018 81.467 Q 87.872 81.854 87.853 82.431 A 5.442 5.442 0 0 0 87.85 82.616 L 87.85 85.558 L 87 85.558 L 87 79.95 L 87.691 79.95 L 87.829 80.717 L 87.87 80.717 A 1.72 1.72 0 0 1 88.544 80.104 A 2.068 2.068 0 0 1 88.602 80.075 A 2.3 2.3 0 0 1 89.42 79.857 A 2.781 2.781 0 0 1 89.651 79.847 Q 90.323 79.847 90.774 80.062 A 1.526 1.526 0 0 1 91.176 80.336 A 1.472 1.472 0 0 1 91.534 80.899 Q 91.687 81.312 91.687 81.899 L 91.687 85.558 Z M 75.369 79.95 L 75.369 80.61 L 73.941 80.61 L 73.941 85.558 L 73.092 85.558 L 73.092 80.61 L 72.089 80.61 L 72.089 80.226 L 73.092 79.919 L 73.092 79.607 Q 73.092 77.539 74.898 77.539 A 2.735 2.735 0 0 1 75.285 77.569 Q 75.473 77.596 75.683 77.648 A 5.499 5.499 0 0 1 75.942 77.719 L 75.722 78.399 Q 75.373 78.286 75.096 78.254 A 1.827 1.827 0 0 0 74.883 78.24 A 1.146 1.146 0 0 0 74.606 78.272 A 0.736 0.736 0 0 0 74.171 78.56 Q 73.962 78.85 73.943 79.458 A 4.011 4.011 0 0 0 73.941 79.586 L 73.941 79.95 L 75.369 79.95 Z M 96.011 84.857 L 96.011 85.507 Q 95.873 85.573 95.605 85.617 A 3.682 3.682 0 0 1 95.365 85.648 Q 95.235 85.66 95.121 85.66 Q 93.494 85.66 93.494 83.946 L 93.494 80.61 L 92.69 80.61 L 92.69 80.2 L 93.494 79.847 L 93.852 78.65 L 94.343 78.65 L 94.343 79.95 L 95.97 79.95 L 95.97 80.61 L 94.343 80.61 L 94.343 83.91 A 1.711 1.711 0 0 0 94.368 84.211 Q 94.397 84.376 94.462 84.506 A 0.824 0.824 0 0 0 94.584 84.688 A 0.789 0.789 0 0 0 95.069 84.946 A 1.135 1.135 0 0 0 95.244 84.959 A 2.79 2.79 0 0 0 95.653 84.93 A 2.57 2.57 0 0 0 95.679 84.926 Q 95.889 84.893 96.011 84.857 Z M 79.621 79.909 L 79.503 80.697 A 3.744 3.744 0 0 0 79.234 80.647 Q 79.1 80.628 78.98 80.622 A 1.992 1.992 0 0 0 78.889 80.62 A 1.472 1.472 0 0 0 77.802 81.09 A 2.014 2.014 0 0 0 77.725 81.173 Q 77.242 81.725 77.242 82.549 L 77.242 85.558 L 76.392 85.558 L 76.392 79.95 L 77.093 79.95 L 77.19 80.988 L 77.231 80.988 A 2.869 2.869 0 0 1 77.552 80.53 A 2.191 2.191 0 0 1 77.984 80.144 A 1.693 1.693 0 0 1 78.951 79.847 A 3.9 3.9 0 0 1 79.3 79.862 A 2.846 2.846 0 0 1 79.621 79.909 Z M 85.511 82.749 Q 85.511 84.12 84.82 84.89 A 2.265 2.265 0 0 1 83.487 85.612 A 3.299 3.299 0 0 1 82.911 85.66 A 2.728 2.728 0 0 1 82.119 85.549 A 2.365 2.365 0 0 1 81.576 85.307 A 2.3 2.3 0 0 1 80.737 84.415 A 2.792 2.792 0 0 1 80.675 84.294 Q 80.358 83.634 80.358 82.749 A 4.411 4.411 0 0 1 80.435 81.896 Q 80.533 81.399 80.755 81.012 A 2.347 2.347 0 0 1 81.044 80.612 Q 81.729 79.847 82.947 79.847 A 2.854 2.854 0 0 1 83.785 79.964 A 2.224 2.224 0 0 1 84.818 80.63 A 2.645 2.645 0 0 1 85.395 81.75 Q 85.497 82.147 85.509 82.614 A 4.986 4.986 0 0 1 85.511 82.749 Z M 81.238 82.749 A 4.302 4.302 0 0 0 81.279 83.363 Q 81.371 83.997 81.668 84.386 A 1.392 1.392 0 0 0 82.575 84.92 A 2.11 2.11 0 0 0 82.932 84.949 A 1.973 1.973 0 0 0 83.452 84.884 A 1.373 1.373 0 0 0 84.198 84.389 Q 84.52 83.972 84.602 83.268 A 4.475 4.475 0 0 0 84.631 82.749 A 4.238 4.238 0 0 0 84.591 82.145 Q 84.546 81.837 84.453 81.588 A 1.749 1.749 0 0 0 84.198 81.124 A 1.397 1.397 0 0 0 83.33 80.606 A 2.142 2.142 0 0 0 82.922 80.569 A 2.022 2.022 0 0 0 82.418 80.628 A 1.353 1.353 0 0 0 81.663 81.116 Q 81.238 81.664 81.238 82.749 Z" id="front_labelLayer" stroke="#777777" fill="#777777" style="stroke:#777777;fill:#777777" vector-effect="non-scaling-stroke"/><path d="M 177.1 55.4 L 177.1 68.85 L 171.1 68.85 L 171.1 94.35 L 177.1 94.35 L 177.1 107.8 L 184.55 107.8 L 184.55 101.8 L 210.05 101.8 L 210.05 107.8 L 217.5 107.8 L 217.5 94.35 L 223.5 94.35 L 223.5 68.85 L 217.5 68.85 L 217.5 55.4 L 177.1 55.4 Z" id="left_outsideCutPath" stroke="#FF0000" stroke-width="0.1" style="stroke:#FF0000;stroke-width:0.1" vector-effect="non-scaling-stroke"/><path d="M 201.028 79.95 L 201.028 80.61 L 199.6 80.61 L 199.6 85.558 L 198.751 85.558 L 198.751 80.61 L 197.748 80.61 L 197.748 80.226 L 198.751 79.919 L 198.751 79.607 Q 198.751 77.539 200.557 77.539 A 2.735 2.735 0 0 1 200.944 77.569 Q 201.132 77.596 201.342 77.648 A 5.499 5.499 0 0 1 201.601 77.719 L 201.381 78.399 Q 201.032 78.286 200.755 78.254 A 1.827 1.827 0 0 0 200.542 78.24 A 1.146 1.146 0 0 0 200.266 78.272 A 0.736 0.736 0 0 0 199.83 78.56 Q 199.622 78.85 199.602 79.458 A 4.011 4.011 0 0 0 199.6 79.586 L 199.6 79.95 L 201.028 79.95 Z M 197.052 82.37 L 197.052 82.907 L 193.188 82.907 A 3.409 3.409 0 0 0 193.248 83.478 Q 193.309 83.789 193.432 84.035 A 1.595 1.595 0 0 0 193.687 84.407 A 1.544 1.544 0 0 0 194.498 84.863 A 2.339 2.339 0 0 0 195.02 84.918 Q 195.926 84.918 196.811 84.54 L 196.811 85.297 A 5.1 5.1 0 0 1 196.347 85.473 A 3.9 3.9 0 0 1 195.959 85.576 A 3.566 3.566 0 0 1 195.605 85.631 Q 195.431 85.649 195.234 85.656 A 6.92 6.92 0 0 1 194.99 85.66 A 3.301 3.301 0 0 1 194.164 85.563 A 2.337 2.337 0 0 1 193.027 84.903 A 2.5 2.5 0 0 1 192.429 83.805 Q 192.308 83.352 192.308 82.8 A 4.46 4.46 0 0 1 192.391 81.915 Q 192.5 81.378 192.752 80.96 A 2.515 2.515 0 0 1 192.976 80.646 A 2.177 2.177 0 0 1 194.562 79.854 A 3.003 3.003 0 0 1 194.77 79.847 A 2.588 2.588 0 0 1 195.498 79.945 A 1.969 1.969 0 0 1 196.438 80.541 Q 197.052 81.234 197.052 82.37 Z M 204.63 84.857 L 204.63 85.507 Q 204.492 85.573 204.224 85.617 A 3.682 3.682 0 0 1 203.983 85.648 Q 203.854 85.66 203.74 85.66 Q 202.113 85.66 202.113 83.946 L 202.113 80.61 L 201.309 80.61 L 201.309 80.2 L 202.113 79.847 L 202.471 78.65 L 202.962 78.65 L 202.962 79.95 L 204.589 79.95 L 204.589 80.61 L 202.962 80.61 L 202.962 83.91 A 1.711 1.711 0 0 0 202.987 84.211 Q 203.016 84.376 203.081 84.506 A 0.824 0.824 0 0 0 203.203 84.688 A 0.789 0.789 0 0 0 203.688 84.946 A 1.135 1.135 0 0 0 203.863 84.959 A 2.79 2.79 0 0 0 204.271 84.93 A 2.57 2.57 0 0 0 204.298 84.926 Q 204.508 84.893 204.63 84.857 Z M 190.819 77.596 L 190.819 85.558 L 189.97 85.558 L 189.97 77.596 L 190.819 77.596 Z M 193.209 82.217 L 196.141 82.217 Q 196.141 81.413 195.783 80.986 A 1.164 1.164 0 0 0 195.082 80.587 A 1.746 1.746 0 0 0 194.759 80.559 Q 194.084 80.559 193.682 80.999 A 1.678 1.678 0 0 0 193.348 81.562 Q 193.242 81.852 193.209 82.217 Z" id="left_labelLayer" stroke="#777777" fill="#777777" style="stroke:#777777;fill:#777777" vector-effect="non-scaling-stroke"/><path d="M 0 0 L 0 13.45 L 6 13.45 L 6 38.95 L 0 38.95 L 0 52.4 L 20.3 52.4 L 20.3 46.4 L 45.8 46.4 L 45.8 52.4 L 71.3 52.4 L 71.3 46.4 L 96.8 46.4 L 96.8 52.4 L 122.3 52.4 L 122.3 46.4 L 147.8 46.4 L 147.8 52.4 L 168.1 52.4 L 168.1 38.95 L 162.1 38.95 L 162.1 13.45 L 168.1 13.45 L 168.1 0 L 0 0 Z" id="back_outsideCutPath" stroke="#FF0000" stroke-width="0.1" style="stroke:#FF0000;stroke-width:0.1" vector-effect="non-scaling-stroke"/><path d="M 91.224 27.259 L 91.265 27.259 A 5.029 5.029 0 0 1 91.39 27.091 Q 91.533 26.905 91.737 26.667 A 18.252 18.252 0 0 1 91.936 26.44 L 93.747 24.522 L 94.755 24.522 L 92.483 26.911 L 94.914 30.13 L 93.885 30.13 L 91.905 27.479 L 91.265 28.032 L 91.265 30.13 L 90.426 30.13 L 90.426 22.168 L 91.265 22.168 L 91.265 26.389 Q 91.265 26.666 91.226 27.238 A 34.311 34.311 0 0 1 91.224 27.259 Z M 74.036 29.408 L 73.974 29.408 L 73.795 30.13 L 73.186 30.13 L 73.186 22.168 L 74.036 22.168 L 74.036 24.102 Q 74.036 24.752 73.995 25.269 L 74.036 25.269 A 1.931 1.931 0 0 1 75.445 24.45 A 2.901 2.901 0 0 1 75.796 24.429 A 2.596 2.596 0 0 1 76.527 24.527 A 1.943 1.943 0 0 1 77.513 25.184 A 2.503 2.503 0 0 1 77.952 26.03 Q 78.124 26.587 78.124 27.321 Q 78.124 28.296 77.817 28.963 A 2.388 2.388 0 0 1 77.508 29.467 A 2.011 2.011 0 0 1 76.078 30.219 A 2.881 2.881 0 0 1 75.796 30.232 A 2.577 2.577 0 0 1 75.149 30.153 A 2.242 2.242 0 0 1 74.796 30.03 A 1.881 1.881 0 0 1 74.036 29.408 Z M 83.687 30.13 L 83.057 30.13 L 82.888 29.332 L 82.847 29.332 A 3.521 3.521 0 0 1 82.563 29.651 Q 82.286 29.922 82.011 30.046 A 1.959 1.959 0 0 1 81.606 30.173 Q 81.321 30.232 80.969 30.232 A 2.607 2.607 0 0 1 80.439 30.182 Q 80.115 30.114 79.866 29.957 A 1.463 1.463 0 0 1 79.662 29.802 A 1.396 1.396 0 0 1 79.241 29.066 A 2.137 2.137 0 0 1 79.189 28.579 Q 79.189 26.881 81.906 26.799 L 82.858 26.768 L 82.858 26.42 Q 82.858 26.017 82.752 25.742 A 0.948 0.948 0 0 0 82.574 25.445 Q 82.347 25.194 81.904 25.143 A 2.099 2.099 0 0 0 81.665 25.13 Q 81.102 25.13 80.419 25.408 A 5.689 5.689 0 0 0 80.079 25.56 L 79.818 24.91 A 3.917 3.917 0 0 1 80.574 24.6 A 4.458 4.458 0 0 1 80.726 24.557 A 3.934 3.934 0 0 1 81.717 24.429 Q 82.72 24.429 83.203 24.875 A 1.345 1.345 0 0 1 83.55 25.41 Q 83.631 25.63 83.664 25.903 A 3.342 3.342 0 0 1 83.687 26.302 L 83.687 30.13 Z M 89.177 24.711 L 88.916 25.432 A 3.779 3.779 0 0 0 88.507 25.296 A 4.513 4.513 0 0 0 88.302 25.246 A 3.509 3.509 0 0 0 88.035 25.196 Q 87.905 25.178 87.789 25.173 A 1.883 1.883 0 0 0 87.714 25.171 A 1.884 1.884 0 0 0 86.949 25.315 Q 86.147 25.669 86.026 26.891 A 4.694 4.694 0 0 0 86.005 27.351 A 4.114 4.114 0 0 0 86.045 27.95 Q 86.135 28.558 86.422 28.938 A 1.349 1.349 0 0 0 87.296 29.46 A 2.055 2.055 0 0 0 87.658 29.49 A 3.556 3.556 0 0 0 88.638 29.348 A 4.39 4.39 0 0 0 89.096 29.188 L 89.096 29.941 Q 88.612 30.191 87.914 30.226 A 4.658 4.658 0 0 1 87.678 30.232 Q 86.46 30.232 85.792 29.483 Q 85.125 28.733 85.125 27.362 Q 85.125 25.954 85.803 25.187 A 2.199 2.199 0 0 1 87.007 24.494 A 3.334 3.334 0 0 1 87.734 24.419 A 3.833 3.833 0 0 1 88.543 24.506 A 4.24 4.24 0 0 1 88.779 24.564 Q 89.019 24.63 89.177 24.711 Z M 75.673 25.141 Q 74.803 25.141 74.419 25.64 A 1.454 1.454 0 0 0 74.209 26.041 Q 74.067 26.439 74.041 27.044 A 6.545 6.545 0 0 0 74.036 27.321 Q 74.036 28.503 74.43 29.012 Q 74.783 29.468 75.519 29.516 A 2.731 2.731 0 0 0 75.694 29.521 A 1.693 1.693 0 0 0 76.175 29.457 A 1.222 1.222 0 0 0 76.86 28.95 Q 77.244 28.38 77.244 27.31 A 5.019 5.019 0 0 0 77.214 26.739 Q 77.142 26.113 76.899 25.735 A 1.409 1.409 0 0 0 76.86 25.678 A 1.239 1.239 0 0 0 76.072 25.179 A 1.965 1.965 0 0 0 75.673 25.141 Z M 82.837 27.878 L 82.837 27.372 L 81.988 27.408 A 6.237 6.237 0 0 0 81.489 27.444 Q 80.998 27.501 80.69 27.637 A 1.305 1.305 0 0 0 80.527 27.722 A 0.906 0.906 0 0 0 80.095 28.38 A 1.342 1.342 0 0 0 80.079 28.59 Q 80.079 28.995 80.295 29.229 A 0.757 0.757 0 0 0 80.358 29.291 Q 80.599 29.498 81.006 29.527 A 1.911 1.911 0 0 0 81.138 29.531 Q 81.931 29.531 82.384 29.096 A 1.423 1.423 0 0 0 82.781 28.386 Q 82.836 28.157 82.837 27.887 A 2.71 2.71 0 0 0 82.837 27.878 Z" id="back_labelLayer" stroke="#777777" fill="#777777" style="stroke:#777777;fill:#777777" vector-effect="non-scaling-stroke"/><path d="M 177.1 0 L 177.1 13.45 L 171.1 13.45 L 171.1 38.95 L 177.1 38.95 L 177.1 52.4 L 184.55 52.4 L 184.55 46.4 L 210.05 46.4 L 210.05 52.4 L 217.5 52.4 L 217.5 38.95 L 223.5 38.95 L 223.5 13.45 L 217.5 13.45 L 217.5 0 L 177.1 0 Z" id="right_outsideCutPath" stroke="#FF0000" stroke-width="0.1" style="stroke:#FF0000;stroke-width:0.1" vector-effect="non-scaling-stroke"/><path d="M 203.817 28.922 L 202.967 28.922 L 202.967 25.294 A 2.401 2.401 0 0 0 202.94 24.918 Q 202.875 24.508 202.655 24.271 Q 202.343 23.933 201.678 23.933 Q 201.1 23.933 200.726 24.138 A 1.189 1.189 0 0 0 200.386 24.414 Q 200.014 24.854 199.982 25.807 A 5.482 5.482 0 0 0 199.979 25.99 L 199.979 28.922 L 199.129 28.922 L 199.129 20.96 L 199.979 20.96 L 199.979 23.37 A 7.641 7.641 0 0 1 199.974 23.664 Q 199.964 23.908 199.938 24.092 L 199.989 24.092 A 1.697 1.697 0 0 1 200.584 23.519 A 2.073 2.073 0 0 1 200.703 23.455 Q 201.166 23.222 201.76 23.222 Q 202.788 23.222 203.302 23.71 A 1.479 1.479 0 0 1 203.667 24.283 Q 203.817 24.69 203.817 25.264 L 203.817 28.922 Z M 196.039 23.314 L 197.978 23.314 L 197.978 23.851 L 196.939 23.974 Q 197.06 24.125 197.159 24.353 A 2.619 2.619 0 0 1 197.195 24.442 A 1.634 1.634 0 0 1 197.292 24.833 A 2.099 2.099 0 0 1 197.308 25.095 Q 197.308 25.919 196.745 26.41 A 1.884 1.884 0 0 1 196.004 26.8 Q 195.723 26.879 195.39 26.896 A 3.69 3.69 0 0 1 195.199 26.901 Q 194.949 26.901 194.729 26.86 A 1.512 1.512 0 0 0 194.485 27.018 Q 194.359 27.119 194.286 27.236 A 0.639 0.639 0 0 0 194.186 27.582 A 0.44 0.44 0 0 0 194.209 27.726 Q 194.249 27.844 194.364 27.915 A 0.471 0.471 0 0 0 194.376 27.922 A 0.596 0.596 0 0 0 194.508 27.976 Q 194.698 28.032 195.025 28.032 L 196.018 28.032 Q 196.626 28.032 197.045 28.203 A 1.535 1.535 0 0 1 197.418 28.416 Q 197.906 28.8 197.906 29.531 A 1.839 1.839 0 0 1 197.801 30.168 Q 197.632 30.631 197.188 30.932 A 2.019 2.019 0 0 1 197.159 30.951 A 2.547 2.547 0 0 1 196.503 31.249 Q 196.179 31.348 195.784 31.395 A 6.733 6.733 0 0 1 194.979 31.44 A 4.759 4.759 0 0 1 194.341 31.4 Q 194.017 31.356 193.752 31.264 A 1.974 1.974 0 0 1 193.283 31.031 A 1.354 1.354 0 0 1 192.847 30.557 Q 192.707 30.298 192.689 29.969 A 1.794 1.794 0 0 1 192.687 29.874 Q 192.687 29.362 193.014 28.989 A 1.483 1.483 0 0 1 193.524 28.618 A 2.102 2.102 0 0 1 193.935 28.482 A 0.882 0.882 0 0 1 193.593 28.205 A 1.047 1.047 0 0 1 193.575 28.18 Q 193.429 27.976 193.429 27.704 A 0.971 0.971 0 0 1 193.478 27.392 A 0.861 0.861 0 0 1 193.593 27.167 Q 193.716 26.993 193.948 26.828 A 2.669 2.669 0 0 1 194.109 26.722 A 1.489 1.489 0 0 1 193.463 26.204 A 1.846 1.846 0 0 1 193.401 26.113 A 1.756 1.756 0 0 1 193.131 25.267 A 2.143 2.143 0 0 1 193.127 25.13 A 2.454 2.454 0 0 1 193.191 24.55 A 1.615 1.615 0 0 1 193.68 23.71 Q 194.232 23.212 195.245 23.212 A 3.256 3.256 0 0 1 195.676 23.239 A 2.48 2.48 0 0 1 196.039 23.314 Z M 208.141 28.221 L 208.141 28.871 Q 208.003 28.938 207.734 28.981 A 3.682 3.682 0 0 1 207.494 29.012 Q 207.365 29.025 207.25 29.025 Q 205.623 29.025 205.623 27.31 L 205.623 23.974 L 204.82 23.974 L 204.82 23.565 L 205.623 23.212 L 205.981 22.014 L 206.473 22.014 L 206.473 23.314 L 208.1 23.314 L 208.1 23.974 L 206.473 23.974 L 206.473 27.275 A 1.711 1.711 0 0 0 206.497 27.575 Q 206.527 27.74 206.591 27.87 A 0.824 0.824 0 0 0 206.713 28.052 A 0.789 0.789 0 0 0 207.198 28.311 A 1.135 1.135 0 0 0 207.373 28.324 A 2.79 2.79 0 0 0 207.782 28.294 A 2.57 2.57 0 0 0 207.808 28.29 Q 208.018 28.257 208.141 28.221 Z M 189.688 23.273 L 189.57 24.061 A 3.744 3.744 0 0 0 189.301 24.011 Q 189.167 23.992 189.048 23.986 A 1.992 1.992 0 0 0 188.956 23.984 A 1.472 1.472 0 0 0 187.869 24.454 A 2.014 2.014 0 0 0 187.792 24.537 Q 187.309 25.09 187.309 25.913 L 187.309 28.922 L 186.459 28.922 L 186.459 23.314 L 187.16 23.314 L 187.258 24.353 L 187.298 24.353 A 2.869 2.869 0 0 1 187.619 23.894 A 2.191 2.191 0 0 1 188.051 23.508 A 1.693 1.693 0 0 1 189.018 23.212 A 3.9 3.9 0 0 1 189.367 23.226 A 2.846 2.846 0 0 1 189.688 23.273 Z M 191.587 23.314 L 191.587 28.922 L 190.737 28.922 L 190.737 23.314 L 191.587 23.314 Z M 195.747 28.794 L 194.729 28.794 Q 194.305 28.794 194.019 28.943 A 0.995 0.995 0 0 0 193.828 29.071 A 0.895 0.895 0 0 0 193.534 29.578 A 1.359 1.359 0 0 0 193.506 29.864 A 0.853 0.853 0 0 0 193.562 30.18 Q 193.643 30.384 193.839 30.522 A 0.997 0.997 0 0 0 193.889 30.555 A 1.36 1.36 0 0 0 194.224 30.698 Q 194.542 30.79 194.99 30.79 Q 196.059 30.79 196.573 30.47 A 1.239 1.239 0 0 0 196.861 30.23 A 0.929 0.929 0 0 0 197.088 29.603 Q 197.088 29.147 196.806 28.971 A 0.806 0.806 0 0 0 196.615 28.888 Q 196.412 28.825 196.09 28.804 A 5.405 5.405 0 0 0 195.747 28.794 Z M 193.966 25.11 Q 193.966 25.698 194.299 26 A 1.098 1.098 0 0 0 194.741 26.24 Q 194.909 26.289 195.11 26.299 A 2.187 2.187 0 0 0 195.225 26.302 A 1.851 1.851 0 0 0 195.709 26.245 Q 196.264 26.094 196.413 25.55 A 1.72 1.72 0 0 0 196.468 25.095 Q 196.468 24.092 195.676 23.885 A 1.847 1.847 0 0 0 195.21 23.831 Q 194.751 23.831 194.454 24.02 A 0.978 0.978 0 0 0 194.289 24.153 A 1.019 1.019 0 0 0 194.042 24.569 Q 193.966 24.803 193.966 25.11 Z M 190.678 21.638 A 0.941 0.941 0 0 0 190.666 21.794 A 1.003 1.003 0 0 0 190.67 21.89 Q 190.678 21.976 190.702 22.046 A 0.439 0.439 0 0 0 190.809 22.221 A 0.477 0.477 0 0 0 190.981 22.331 A 0.54 0.54 0 0 0 191.167 22.362 A 0.496 0.496 0 0 0 191.52 22.221 A 0.415 0.415 0 0 0 191.601 22.114 Q 191.638 22.045 191.655 21.955 A 0.879 0.879 0 0 0 191.669 21.794 Q 191.669 21.654 191.633 21.55 A 0.429 0.429 0 0 0 191.52 21.369 Q 191.372 21.231 191.167 21.231 A 0.648 0.648 0 0 0 191.124 21.233 A 0.491 0.491 0 0 0 190.809 21.367 A 0.397 0.397 0 0 0 190.721 21.491 Q 190.691 21.556 190.678 21.638 Z" id="right_labelLayer" stroke="#777777" fill="#777777" style="stroke:#777777;fill:#777777" vector-effect="non-scaling-stroke"/><path d="M 232.5 61.4 L 232.5 68.85 L 226.5 68.85 L 226.5 94.35 L 232.5 94.35 L 232.5 101.8 L 246.8 101.8 L 246.8 107.8 L 272.3 107.8 L 272.3 101.8 L 297.8 101.8 L 297.8 107.8 L 323.3 107.8 L 323.3 101.8 L 348.8 101.8 L 348.8 107.8 L 374.3 107.8 L 374.3 101.8 L 388.6 101.8 L 388.6 94.35 L 394.6 94.35 L 394.6 68.85 L 388.6 68.85 L 388.6 61.4 L 374.3 61.4 L 374.3 55.4 L 348.8 55.4 L 348.8 61.4 L 323.3 61.4 L 323.3 55.4 L 297.8 55.4 L 297.8 61.4 L 272.3 61.4 L 272.3 55.4 L 246.8 55.4 L 246.8 61.4 L 232.5 61.4 Z" id="bottom_outsideCutPath" stroke="#FF0000" stroke-width="0.1" style="stroke:#FF0000;stroke-width:0.1" vector-effect="non-scaling-stroke"/><path d="M 327.79 85.53 L 326.94 85.53 L 326.94 81.881 A 2.506 2.506 0 0 0 326.915 81.513 Q 326.855 81.111 326.654 80.876 A 0.894 0.894 0 0 0 326.238 80.607 Q 326.032 80.541 325.763 80.541 A 2.186 2.186 0 0 0 325.319 80.583 Q 324.855 80.679 324.592 80.996 Q 324.213 81.451 324.213 82.398 L 324.213 85.53 L 323.363 85.53 L 323.363 81.881 A 2.506 2.506 0 0 0 323.338 81.513 Q 323.278 81.111 323.077 80.876 A 0.891 0.891 0 0 0 322.667 80.609 Q 322.52 80.561 322.339 80.547 A 1.989 1.989 0 0 0 322.181 80.541 A 2.11 2.11 0 0 0 321.745 80.583 Q 321.476 80.64 321.275 80.774 A 1.113 1.113 0 0 0 321.012 81.019 A 1.425 1.425 0 0 0 320.801 81.42 Q 320.664 81.808 320.644 82.389 A 5.914 5.914 0 0 0 320.641 82.587 L 320.641 85.53 L 319.792 85.53 L 319.792 79.921 L 320.482 79.921 L 320.621 80.689 L 320.662 80.689 A 1.669 1.669 0 0 1 321.34 80.049 A 2.017 2.017 0 0 1 322.136 79.826 A 2.436 2.436 0 0 1 322.32 79.819 Q 323.635 79.819 324.039 80.771 L 324.08 80.771 A 1.774 1.774 0 0 1 324.748 80.108 A 2.131 2.131 0 0 1 324.806 80.075 Q 325.282 79.819 325.891 79.819 Q 326.533 79.819 326.957 80.041 A 1.4 1.4 0 0 1 327.316 80.308 Q 327.79 80.796 327.79 81.871 L 327.79 85.53 Z M 294.16 84.808 L 294.098 84.808 L 293.919 85.53 L 293.31 85.53 L 293.31 77.568 L 294.16 77.568 L 294.16 79.502 Q 294.16 80.152 294.119 80.669 L 294.16 80.669 A 1.931 1.931 0 0 1 295.569 79.85 A 2.901 2.901 0 0 1 295.92 79.829 A 2.596 2.596 0 0 1 296.651 79.927 A 1.943 1.943 0 0 1 297.637 80.584 A 2.503 2.503 0 0 1 298.076 81.429 Q 298.248 81.987 298.248 82.721 Q 298.248 83.695 297.941 84.363 A 2.388 2.388 0 0 1 297.632 84.867 A 2.011 2.011 0 0 1 296.202 85.619 A 2.881 2.881 0 0 1 295.92 85.632 A 2.577 2.577 0 0 1 295.272 85.553 A 2.242 2.242 0 0 1 294.92 85.43 A 1.881 1.881 0 0 1 294.16 84.808 Z M 308.641 84.829 L 308.641 85.479 Q 308.503 85.545 308.234 85.589 A 3.682 3.682 0 0 1 307.994 85.62 Q 307.865 85.632 307.751 85.632 Q 306.124 85.632 306.124 83.918 L 306.124 80.582 L 305.32 80.582 L 305.32 80.172 L 306.124 79.819 L 306.482 78.622 L 306.973 78.622 L 306.973 79.921 L 308.6 79.921 L 308.6 80.582 L 306.973 80.582 L 306.973 83.882 A 1.711 1.711 0 0 0 306.998 84.183 Q 307.027 84.347 307.092 84.478 A 0.824 0.824 0 0 0 307.214 84.66 A 0.789 0.789 0 0 0 307.699 84.918 A 1.135 1.135 0 0 0 307.874 84.931 A 2.79 2.79 0 0 0 308.282 84.902 A 2.57 2.57 0 0 0 308.309 84.898 Q 308.518 84.865 308.641 84.829 Z M 312.341 84.829 L 312.341 85.479 Q 312.203 85.545 311.934 85.589 A 3.682 3.682 0 0 1 311.694 85.62 Q 311.565 85.632 311.451 85.632 Q 309.823 85.632 309.823 83.918 L 309.823 80.582 L 309.02 80.582 L 309.02 80.172 L 309.823 79.819 L 310.182 78.622 L 310.673 78.622 L 310.673 79.921 L 312.3 79.921 L 312.3 80.582 L 310.673 80.582 L 310.673 83.882 A 1.711 1.711 0 0 0 310.697 84.183 Q 310.727 84.347 310.792 84.478 A 0.824 0.824 0 0 0 310.913 84.66 A 0.789 0.789 0 0 0 311.398 84.918 A 1.135 1.135 0 0 0 311.573 84.931 A 2.79 2.79 0 0 0 311.982 84.902 A 2.57 2.57 0 0 0 312.008 84.898 Q 312.218 84.865 312.341 84.829 Z M 304.573 82.721 Q 304.573 84.092 303.882 84.862 A 2.265 2.265 0 0 1 302.55 85.584 A 3.299 3.299 0 0 1 301.974 85.632 A 2.728 2.728 0 0 1 301.181 85.521 A 2.365 2.365 0 0 1 300.638 85.279 A 2.3 2.3 0 0 1 299.799 84.387 A 2.792 2.792 0 0 1 299.737 84.266 Q 299.42 83.606 299.42 82.721 A 4.411 4.411 0 0 1 299.497 81.868 Q 299.595 81.371 299.818 80.984 A 2.347 2.347 0 0 1 300.106 80.584 Q 300.791 79.819 302.009 79.819 A 2.854 2.854 0 0 1 302.847 79.936 A 2.224 2.224 0 0 1 303.88 80.602 A 2.645 2.645 0 0 1 304.458 81.722 Q 304.559 82.119 304.571 82.586 A 4.986 4.986 0 0 1 304.573 82.721 Z M 318.303 82.721 Q 318.303 84.092 317.612 84.862 A 2.265 2.265 0 0 1 316.279 85.584 A 3.299 3.299 0 0 1 315.703 85.632 A 2.728 2.728 0 0 1 314.91 85.521 A 2.365 2.365 0 0 1 314.367 85.279 A 2.3 2.3 0 0 1 313.529 84.387 A 2.792 2.792 0 0 1 313.467 84.266 Q 313.15 83.606 313.15 82.721 A 4.411 4.411 0 0 1 313.227 81.868 Q 313.325 81.371 313.547 80.984 A 2.347 2.347 0 0 1 313.835 80.584 Q 314.521 79.819 315.739 79.819 A 2.854 2.854 0 0 1 316.577 79.936 A 2.224 2.224 0 0 1 317.609 80.602 A 2.645 2.645 0 0 1 318.187 81.722 Q 318.288 82.119 318.301 82.586 A 4.986 4.986 0 0 1 318.303 82.721 Z M 300.3 82.721 A 4.302 4.302 0 0 0 300.341 83.335 Q 300.433 83.969 300.73 84.358 A 1.392 1.392 0 0 0 301.637 84.892 A 2.11 2.11 0 0 0 301.994 84.921 A 1.973 1.973 0 0 0 302.515 84.856 A 1.373 1.373 0 0 0 303.261 84.361 Q 303.582 83.944 303.665 83.24 A 4.475 4.475 0 0 0 303.693 82.721 A 4.238 4.238 0 0 0 303.653 82.117 Q 303.608 81.809 303.515 81.56 A 1.749 1.749 0 0 0 303.261 81.096 A 1.397 1.397 0 0 0 302.392 80.578 A 2.142 2.142 0 0 0 301.984 80.541 A 2.022 2.022 0 0 0 301.48 80.6 A 1.353 1.353 0 0 0 300.725 81.088 Q 300.3 81.636 300.3 82.721 Z M 314.03 82.721 A 4.302 4.302 0 0 0 314.071 83.335 Q 314.162 83.969 314.46 84.358 A 1.392 1.392 0 0 0 315.366 84.892 A 2.11 2.11 0 0 0 315.723 84.921 A 1.973 1.973 0 0 0 316.244 84.856 A 1.373 1.373 0 0 0 316.99 84.361 Q 317.312 83.944 317.394 83.24 A 4.475 4.475 0 0 0 317.422 82.721 A 4.238 4.238 0 0 0 317.382 82.117 Q 317.338 81.809 317.244 81.56 A 1.749 1.749 0 0 0 316.99 81.096 A 1.397 1.397 0 0 0 316.121 80.578 A 2.142 2.142 0 0 0 315.713 80.541 A 2.022 2.022 0 0 0 315.21 80.6 A 1.353 1.353 0 0 0 314.454 81.088 Q 314.03 81.636 314.03 82.721 Z M 295.797 80.541 Q 294.927 80.541 294.543 81.04 A 1.454 1.454 0 0 0 294.333 81.441 Q 294.191 81.839 294.165 82.444 A 6.545 6.545 0 0 0 294.16 82.721 Q 294.16 83.903 294.554 84.412 Q 294.907 84.868 295.643 84.915 A 2.731 2.731 0 0 0 295.818 84.921 A 1.693 1.693 0 0 0 296.299 84.857 A 1.222 1.222 0 0 0 296.984 84.35 Q 297.368 83.78 297.368 82.71 A 5.019 5.019 0 0 0 297.338 82.138 Q 297.266 81.513 297.023 81.135 A 1.409 1.409 0 0 0 296.984 81.078 A 1.239 1.239 0 0 0 296.196 80.579 A 1.965 1.965 0 0 0 295.797 80.541 Z" id="bottom_labelLayer" stroke="#777777" fill="#777777" style="stroke:#777777;fill:#777777" vector-effect="non-scaling-stroke"/></g></svg>